<svg xmlns="http://www.w3.org/2000/svg" viewBox="0 0 512 512" role="img" aria-label="UIT Q&amp;A">
  <defs>
    <linearGradient id="tq" x1="0" y1="0" x2="1" y2="1">
      <stop offset="0" stop-color="#00CED1" />
      <stop offset="1" stop-color="#18bfc2" />
    </linearGradient>
  </defs>

  <!-- App tile -->
  <rect width="512" height="512" rx="112" fill="url(#tq)" />
  <circle cx="150" cy="130" r="170" fill="#ffffff" opacity="0.12" />
  <circle cx="402" cy="392" r="210" fill="#ffffff" opacity="0.08" />

  <!-- Two chat bubbles (Q & A) -->
  <g>
    <rect x="96" y="170" width="300" height="176" rx="56" fill="#ffffff" />
    <path d="M168 346l-46 38c-10 8.3-25.3 1.1-25.3-12v-26c0-9.9 8.1-18 18-18h53.3z" fill="#ffffff" />

    <rect x="168" y="236" width="248" height="170" rx="52" fill="#ffffff" opacity="0.96" />
    <path d="M360 406l44 36c10 8.3 25.3 1.1 25.3-12v-24c0-9.9-8.1-18-18-18H360z" fill="#ffffff" opacity="0.96" />
  </g>

  <!-- Q -->
  <g fill="none" stroke="#00CED1" stroke-width="20" stroke-linecap="round" stroke-linejoin="round" opacity="0.98">
    <circle cx="214" cy="258" r="40" />
    <path d="M241 285l24 24" />
  </g>

  <!-- A -->
  <g fill="none" stroke="#00CED1" stroke-width="20" stroke-linecap="round" stroke-linejoin="round" opacity="0.98">
    <path d="M286 336l34-86 34 86" />
    <path d="M302 300h36" />
  </g>
</svg>

